<?xml version="1.0" standalone="no"?>
<!DOCTYPE svg PUBLIC "-//W3C//DTD SVG 20010904//EN"
 "http://www.w3.org/TR/2001/REC-SVG-20010904/DTD/svg10.dtd">
<svg version="1.0" xmlns="http://www.w3.org/2000/svg"
 width="626.000000pt" height="136.000000pt" viewBox="0 0 626.000000 136.000000"
 preserveAspectRatio="xMidYMid meet">

<g transform="translate(0.000000,136.000000) scale(0.100000,-0.100000)"
fill="#000000" stroke="none">
<path d="M797 1275 c-13 -12 -15 -21 -8 -28 15 -15 34 5 29 29 -3 17 -4 17
-21 -1z"/>
<path d="M863 1263 c-15 -5 -18 -43 -4 -43 14 0 30 25 23 36 -4 6 -13 9 -19 7z"/>
<path d="M491 1216 c-10 -18 -10 -29 -2 -45 13 -24 22 -26 39 -9 22 22 8 78
-18 78 -4 0 -12 -11 -19 -24z"/>
<path d="M636 1209 c-14 -21 -12 -49 4 -49 26 0 40 15 40 41 0 35 -22 39 -44
8z"/>
<path d="M401 1192 c-12 -23 2 -47 23 -39 20 8 22 57 1 57 -8 0 -19 -8 -24
-18z"/>
<path d="M262 1102 c-26 -26 -28 -45 -8 -61 12 -10 19 -8 35 8 25 25 25 31 8
56 -13 17 -15 17 -35 -3z"/>
<path d="M758 1108 c-39 -32 -21 -81 21 -58 22 11 26 26 15 54 -7 19 -15 20
-36 4z"/>
<path d="M1027 1083 c-13 -12 -7 -23 12 -23 10 0 21 7 25 15 5 15 -24 22 -37
8z"/>
<path d="M902 1058 c-7 -7 -12 -16 -12 -20 0 -12 28 -10 36 3 10 17 -10 31
-24 17z"/>
<path d="M541 1037 c-17 -21 -10 -61 11 -65 9 -2 21 6 27 16 8 16 7 25 -7 42
-16 20 -19 20 -31 7z"/>
<path d="M380 976 c0 -32 37 -56 47 -30 8 20 -8 48 -31 52 -11 3 -16 -4 -16
-22z"/>
<path d="M689 971 c-32 -33 -35 -48 -15 -76 12 -17 17 -18 40 -7 36 16 53 54
38 87 -15 32 -27 32 -63 -4z"/>
<path d="M878 989 c-11 -6 -18 -22 -18 -39 0 -25 4 -30 23 -30 32 0 61 33 52
59 -7 23 -30 27 -57 10z"/>
<path d="M220 969 c0 -23 22 -49 40 -49 25 0 28 45 4 54 -24 9 -44 7 -44 -5z"/>
<path d="M1004 969 c-11 -18 13 -34 31 -19 8 7 15 16 15 21 0 13 -38 11 -46
-2z"/>
<path d="M1816 962 c-2 -4 -20 -49 -39 -100 -27 -71 -31 -92 -20 -92 8 0 19
14 24 30 10 27 16 30 50 30 35 0 41 -3 50 -30 6 -16 18 -30 26 -30 8 0 13 6
11 13 -52 139 -73 187 -84 187 -7 0 -15 -3 -18 -8z m43 -99 c1 -8 -11 -13 -30
-13 -33 0 -33 3 -7 70 l10 25 13 -35 c8 -19 14 -41 14 -47z"/>
<path d="M1966 957 c-25 -19 -24 -57 2 -76 70 -49 77 -58 62 -76 -11 -13 -23
-15 -52 -11 -38 6 -53 -6 -22 -18 29 -11 72 -6 89 10 28 29 15 66 -32 92 -24
13 -43 30 -43 37 0 18 37 38 57 31 21 -8 39 4 22 15 -20 13 -63 11 -83 -4z"/>
<path d="M2100 870 c0 -82 3 -100 15 -100 11 0 15 12 15 45 l0 45 50 0 50 0 0
-45 c0 -33 4 -45 15 -45 12 0 15 18 15 100 0 82 -3 100 -15 100 -11 0 -15 -11
-15 -40 l0 -40 -50 0 -50 0 0 40 c0 29 -4 40 -15 40 -12 0 -15 -18 -15 -100z"/>
<path d="M2353 960 c-30 -12 -43 -41 -43 -92 0 -55 21 -85 64 -94 49 -9 88 13
103 58 13 40 3 97 -21 117 -20 16 -77 23 -103 11z m78 -29 c18 -14 24 -29 24
-61 0 -32 -6 -47 -24 -61 -29 -24 -43 -24 -72 0 -18 14 -24 29 -24 61 0 32 6
47 24 61 13 10 29 19 36 19 7 0 23 -9 36 -19z"/>
<path d="M2530 870 c0 -80 3 -100 14 -100 10 0 16 13 18 42 2 23 8 43 14 45 6
2 25 -17 43 -42 47 -66 71 -59 26 7 -19 29 -35 58 -35 63 0 6 14 24 30 40 32
31 38 45 18 44 -7 0 -29 -20 -48 -44 -19 -24 -38 -44 -42 -44 -5 -1 -8 19 -8
44 0 33 -4 45 -15 45 -12 0 -15 -18 -15 -100z"/>
<path d="M2730 883 c-18 -48 -35 -94 -38 -100 -2 -7 3 -13 11 -13 8 0 20 14
26 30 9 27 15 30 50 30 34 0 40 -3 50 -30 5 -16 16 -30 24 -30 21 0 -53 194
-74 198 -12 2 -25 -21 -49 -85z m59 35 c25 -66 24 -68 -8 -68 -35 0 -35 -1
-19 51 13 45 16 47 27 17z"/>
<path d="M2950 955 c0 -10 10 -15 30 -15 l30 0 0 -85 c0 -69 3 -85 15 -85 12
0 15 16 15 84 0 84 0 85 27 88 14 2 28 9 31 16 3 9 -16 12 -72 12 -61 0 -76
-3 -76 -15z"/>
<path d="M3130 871 c0 -83 3 -101 15 -101 11 0 15 11 15 40 0 55 31 55 62 0
13 -22 29 -40 36 -40 18 0 15 11 -12 51 -24 35 -24 36 -5 52 22 20 25 60 5 76
-8 6 -37 14 -65 18 l-51 6 0 -102z m74 69 c16 -6 26 -17 26 -29 0 -23 -34 -45
-56 -37 -20 8 -18 76 2 76 1 0 14 -4 28 -10z"/>
<path d="M3310 890 c0 -67 3 -83 20 -100 26 -26 70 -26 104 1 24 19 26 26 26
100 0 64 -3 79 -15 79 -12 0 -15 -16 -15 -80 0 -70 -2 -81 -20 -90 -28 -15
-59 -3 -71 27 -5 13 -9 51 -9 84 0 33 -4 59 -10 59 -6 0 -10 -33 -10 -80z"/>
<path d="M3525 954 c-28 -29 -15 -66 33 -92 65 -36 49 -84 -23 -66 -21 5 -27
4 -23 -7 10 -31 90 -22 108 11 17 31 3 58 -41 80 -60 31 -47 80 17 64 26 -7
34 10 8 20 -28 11 -62 6 -79 -10z"/>
<path d="M3650 955 c0 -10 10 -15 30 -15 l30 0 0 -85 c0 -69 3 -85 15 -85 12
0 15 16 15 84 0 84 0 85 27 88 14 2 28 9 31 16 3 9 -16 12 -72 12 -61 0 -76
-3 -76 -15z"/>
<path d="M3900 870 c0 -80 3 -100 14 -100 10 0 16 14 18 43 3 41 4 42 41 45
50 4 47 22 -4 22 -39 0 -40 1 -37 33 3 29 6 32 41 35 57 5 44 22 -18 22 l-55
0 0 -100z"/>
<path d="M4093 960 c-30 -12 -43 -41 -43 -92 0 -55 21 -85 64 -94 49 -9 88 13
103 58 13 40 3 97 -21 117 -20 16 -77 23 -103 11z m78 -29 c18 -14 24 -29 24
-61 0 -32 -6 -47 -24 -61 -29 -24 -43 -24 -72 0 -18 14 -24 29 -24 61 0 32 6
47 24 61 13 10 29 19 36 19 7 0 23 -9 36 -19z"/>
<path d="M4270 871 c0 -83 3 -101 15 -101 11 0 15 11 15 40 0 55 31 55 62 0
13 -22 29 -40 36 -40 18 0 15 11 -12 51 -24 35 -24 36 -5 52 22 20 25 60 5 76
-8 6 -37 14 -65 18 l-51 6 0 -102z m74 69 c16 -6 26 -17 26 -29 0 -23 -34 -45
-56 -37 -20 8 -18 76 2 76 1 0 14 -4 28 -10z"/>
<path d="M4520 871 c0 -83 3 -101 15 -101 11 0 15 11 15 40 0 55 31 55 62 0
13 -22 29 -40 36 -40 18 0 15 11 -12 51 -24 35 -24 36 -5 52 22 20 25 60 5 76
-8 6 -37 14 -65 18 l-51 6 0 -102z m74 69 c16 -6 26 -17 26 -29 0 -23 -34 -45
-56 -37 -20 8 -18 76 2 76 1 0 14 -4 28 -10z"/>
<path d="M4700 870 l0 -100 55 0 c62 0 75 17 18 22 -35 3 -38 6 -41 36 -3 31
-2 32 37 32 51 0 54 18 4 22 -35 3 -38 6 -38 33 0 27 3 30 38 33 57 5 44 22
-18 22 l-55 0 0 -100z"/>
<path d="M4865 954 c-28 -29 -15 -66 33 -92 65 -36 49 -84 -23 -66 -21 5 -27
4 -23 -7 10 -31 90 -22 108 11 17 31 3 58 -41 80 -60 31 -47 80 17 64 26 -7
34 10 8 20 -28 11 -62 6 -79 -10z"/>
<path d="M5010 870 l0 -100 55 0 c62 0 75 17 18 22 -35 3 -38 6 -41 36 -3 31
-2 32 37 32 51 0 54 18 4 22 -35 3 -38 6 -38 33 0 27 3 30 38 33 57 5 44 22
-18 22 l-55 0 0 -100z"/>
<path d="M5216 962 c-2 -4 -20 -49 -39 -100 -27 -71 -31 -92 -20 -92 8 0 19
14 24 30 10 27 16 30 50 30 35 0 41 -3 50 -30 6 -16 18 -30 26 -30 8 0 13 6
11 13 -52 139 -73 187 -84 187 -7 0 -15 -3 -18 -8z m43 -99 c1 -8 -11 -13 -30
-13 -33 0 -33 3 -7 70 l10 25 13 -35 c8 -19 14 -41 14 -47z"/>
<path d="M5350 871 c0 -83 3 -101 15 -101 11 0 15 11 15 40 0 55 31 55 62 0
13 -22 29 -40 36 -40 18 0 15 11 -12 51 -24 35 -24 36 -5 52 22 20 25 60 5 76
-8 6 -37 14 -65 18 l-51 6 0 -102z m74 69 c16 -6 26 -17 26 -29 0 -23 -34 -45
-56 -37 -20 8 -18 76 2 76 1 0 14 -4 28 -10z"/>
<path d="M5573 960 c-30 -12 -43 -41 -43 -93 0 -62 24 -90 80 -91 26 -1 45 4
47 11 3 9 -4 11 -24 7 -20 -4 -36 0 -53 14 -54 44 -16 153 47 137 30 -7 51 4
32 16 -18 11 -57 10 -86 -1z"/>
<path d="M5710 870 c0 -82 3 -100 15 -100 11 0 15 12 15 45 l0 45 50 0 50 0 0
-45 c0 -33 4 -45 15 -45 12 0 15 18 15 100 0 82 -3 100 -15 100 -11 0 -15 -11
-15 -40 l0 -40 -50 0 -50 0 0 40 c0 29 -4 40 -15 40 -12 0 -15 -18 -15 -100z"/>
<path d="M5990 870 c0 -82 3 -100 15 -100 12 0 15 18 15 100 0 82 -3 100 -15
100 -12 0 -15 -18 -15 -100z"/>
<path d="M6080 870 c0 -121 18 -135 22 -17 l3 82 50 -82 c70 -117 85 -114 85
17 0 121 -18 135 -22 18 l-3 -83 -50 82 c-71 116 -85 113 -85 -17z"/>
<path d="M481 946 c-19 -23 -25 -83 -11 -116 7 -17 25 -40 41 -51 l29 -20 20
33 c24 39 25 69 5 108 -14 27 -51 60 -66 60 -4 0 -12 -6 -18 -14z"/>
<path d="M1184 929 c-10 -17 12 -32 36 -24 17 5 19 10 9 21 -14 17 -35 18 -45
3z"/>
<path d="M922 889 c-28 -21 -76 -40 -151 -59 -174 -46 -232 -84 -282 -182 -28
-56 -39 -98 -54 -221 -4 -32 -17 -61 -41 -92 -19 -25 -34 -47 -34 -50 0 -4 33
0 87 11 31 6 60 68 114 234 55 172 84 206 230 263 73 29 105 48 139 82 52 53
50 57 -8 14z m-315 -150 c-70 -62 -112 -146 -127 -249 -12 -86 -26 -111 -15
-30 16 132 69 239 150 299 59 45 56 37 -8 -20z m-3 -42 c-34 -37 -57 -79 -75
-137 -16 -48 -17 -50 -12 -15 3 22 11 54 18 70 17 40 75 118 82 111 4 -3 -3
-16 -13 -29z"/>
<path d="M190 892 c0 -33 30 -63 58 -60 55 6 28 78 -30 78 -20 0 -28 -5 -28
-18z"/>
<path d="M986 902 c-11 -18 7 -52 30 -58 49 -12 63 13 31 54 -11 14 -53 16
-61 4z"/>
<path d="M617 883 c-4 -3 -7 -15 -7 -26 0 -13 5 -17 16 -13 9 3 18 6 20 6 2 0
4 9 4 20 0 19 -20 27 -33 13z"/>
<path d="M745 879 c-4 -6 -4 -13 -1 -16 8 -8 36 5 36 17 0 13 -27 13 -35 -1z"/>
<path d="M1142 883 c-18 -7 4 -33 29 -33 26 0 33 17 10 29 -11 6 -21 11 -23
10 -2 0 -9 -3 -16 -6z"/>
<path d="M309 848 c5 -15 18 -24 35 -26 24 -3 27 0 24 20 -2 18 -10 24 -35 26
-30 3 -32 2 -24 -20z"/>
<path d="M1202 838 c3 -7 14 -14 26 -16 16 -3 20 1 16 12 -7 19 -48 22 -42 4z"/>
<path d="M107 833 c-10 -9 13 -33 33 -33 22 0 30 9 23 26 -5 14 -44 19 -56 7z"/>
<path d="M276 790 c66 -23 88 -35 152 -83 30 -21 55 -37 56 -35 17 26 36 58
36 62 0 11 -78 45 -137 60 -34 9 -83 16 -109 15 l-49 0 51 -19z"/>
<path d="M997 794 c-8 -8 1 -24 14 -24 5 0 9 7 9 15 0 15 -12 20 -23 9z"/>
<path d="M214 776 c-8 -22 3 -33 18 -18 9 9 9 15 0 24 -9 9 -13 7 -18 -6z"/>
<path d="M20 720 c0 -5 7 -10 15 -10 8 0 15 5 15 10 0 6 -7 10 -15 10 -8 0
-15 -4 -15 -10z"/>
<path d="M680 652 c0 -4 -14 -16 -31 -26 -27 -16 -29 -20 -15 -28 12 -7 16
-25 16 -82 0 -65 -3 -75 -22 -89 -22 -15 -19 -16 55 -16 42 -1 77 3 77 8 0 5
-10 11 -22 13 -22 3 -23 8 -23 83 l0 80 38 -3 c41 -3 59 17 37 43 -18 22 -46
18 -64 -7 l-16 -22 0 27 c0 17 -5 27 -15 27 -8 0 -15 -4 -15 -8z"/>
<path d="M225 634 c-43 -22 -65 -44 -65 -66 0 -21 1 -22 35 -6 14 6 25 19 25
28 0 24 25 42 52 38 19 -2 24 -10 26 -44 3 -40 2 -41 -39 -54 -112 -37 -135
-120 -34 -120 27 0 48 7 63 20 l21 20 11 -20 c18 -34 80 -20 80 18 0 11 -3 12
-13 3 -22 -18 -27 -2 -27 85 0 74 -2 84 -22 98 -29 20 -75 20 -113 0z m58
-191 c-26 -20 -48 -12 -51 19 -3 22 3 32 30 48 l33 20 3 -37 c3 -27 -2 -41
-15 -50z"/>
<path d="M845 618 c-71 -65 -52 -172 38 -207 41 -15 92 -6 131 24 28 21 13 29
-27 14 -61 -22 -113 14 -119 81 l-3 25 83 -3 c77 -3 82 -2 82 17 0 11 -10 32
-23 47 -18 20 -35 28 -74 31 -47 5 -54 3 -88 -29z m103 6 c12 -8 22 -24 22
-35 0 -16 -7 -19 -50 -19 -56 0 -65 15 -30 50 24 24 29 24 58 4z"/>
<path d="M1118 634 c-86 -46 -73 -197 19 -224 47 -14 111 0 138 30 21 23 16
24 -34 9 -49 -14 -87 1 -107 45 -28 58 -17 68 76 60 86 -7 89 -5 68 41 -23 51
-103 70 -160 39z m92 -14 c36 -36 26 -50 -35 -50 -61 0 -67 9 -30 45 29 30 39
31 65 5z"/>
<path d="M1770 490 l0 -100 55 0 c30 0 55 5 55 10 0 6 -18 10 -40 10 -39 0
-40 1 -40 35 0 33 2 35 35 35 19 0 35 5 35 10 0 6 -16 10 -35 10 -33 0 -35 2
-35 35 0 34 1 35 40 35 22 0 40 5 40 10 0 6 -25 10 -55 10 l-55 0 0 -100z"/>
<path d="M1963 580 c-30 -12 -43 -41 -43 -93 0 -62 24 -90 80 -91 26 -1 45 4
47 11 3 9 -4 11 -24 7 -20 -4 -36 0 -53 14 -54 44 -16 153 47 137 30 -7 51 4
32 16 -18 11 -57 10 -86 -1z"/>
<path d="M2133 580 c-30 -12 -43 -41 -43 -92 0 -55 21 -85 64 -94 49 -9 88 13
103 58 13 40 3 97 -21 117 -20 16 -77 23 -103 11z m78 -29 c18 -14 24 -29 24
-61 0 -32 -6 -47 -24 -61 -13 -10 -29 -19 -36 -19 -7 0 -23 9 -36 19 -18 14
-24 29 -24 61 0 32 6 47 24 61 13 10 29 19 36 19 7 0 23 -9 36 -19z"/>
<path d="M2310 490 l0 -100 60 0 c68 0 82 17 18 22 l-43 3 -3 88 c-2 68 -6 87
-17 87 -12 0 -15 -19 -15 -100z"/>
<path d="M2494 578 c-60 -28 -58 -149 3 -177 69 -32 133 11 133 89 0 78 -67
122 -136 88z m86 -28 c43 -43 15 -140 -40 -140 -33 0 -60 35 -60 80 0 45 27
80 60 80 11 0 29 -9 40 -20z"/>
<path d="M2731 579 c-13 -5 -30 -17 -37 -27 -18 -23 -17 -103 1 -129 17 -25
71 -39 110 -29 22 6 25 11 25 56 0 49 -1 50 -30 50 -20 0 -30 -5 -30 -15 0 -8
9 -15 21 -15 16 0 20 -5 17 -27 -6 -55 -90 -34 -103 26 -13 61 38 111 100 95
27 -7 35 10 9 20 -22 8 -55 6 -83 -5z"/>
<path d="M2890 530 c19 -37 30 -75 30 -100 0 -29 4 -40 15 -40 10 0 15 11 15
35 0 20 14 62 30 95 33 65 34 70 21 70 -5 0 -21 -21 -36 -47 l-28 -46 -24 46
c-13 26 -30 47 -38 47 -12 0 -8 -13 15 -60z"/>
<path d="M3218 579 c-20 -11 -24 -49 -7 -66 8 -8 5 -17 -10 -32 -28 -28 -26
-57 5 -78 22 -14 33 -15 67 -5 26 6 46 7 52 1 5 -5 16 -9 24 -9 11 0 11 4 -3
19 -16 18 -16 21 -1 50 13 27 13 31 1 31 -8 0 -18 -9 -21 -20 -8 -26 -17 -25
-43 3 l-22 24 20 18 c49 44 -4 98 -62 64z m48 -24 c4 -8 0 -22 -7 -31 -12 -14
-14 -14 -25 1 -7 9 -10 23 -7 31 7 19 32 18 39 -1z m4 -101 c21 -21 22 -27 10
-34 -36 -23 -77 2 -65 40 9 27 27 25 55 -6z"/>
<path d="M3450 575 c0 -10 10 -15 30 -15 l30 0 0 -85 c0 -69 3 -85 15 -85 12
0 15 16 15 84 0 84 0 85 27 88 14 2 28 9 31 16 3 9 -16 12 -72 12 -61 0 -76
-3 -76 -15z"/>
<path d="M3630 490 c0 -82 3 -100 15 -100 11 0 15 12 15 45 l0 45 50 0 50 0 0
-45 c0 -33 4 -45 15 -45 12 0 15 18 15 100 0 82 -3 100 -15 100 -11 0 -15 -11
-15 -40 l0 -40 -50 0 -50 0 0 40 c0 29 -4 40 -15 40 -12 0 -15 -18 -15 -100z"/>
<path d="M3840 490 l0 -100 55 0 c62 0 75 17 18 22 -35 3 -38 6 -41 36 -3 31
-2 32 37 32 51 0 54 18 4 22 -35 3 -38 6 -38 33 0 27 3 30 38 33 57 5 44 22
-18 22 l-55 0 0 -100z"/>
<path d="M4070 490 l0 -100 55 0 c62 0 75 17 18 22 -35 3 -38 6 -41 36 -3 31
-2 32 37 32 51 0 54 18 4 22 -35 3 -38 6 -38 33 0 27 3 30 38 33 57 5 44 22
-18 22 l-55 0 0 -100z"/>
<path d="M4230 490 c0 -121 18 -135 22 -17 l3 82 50 -82 c70 -117 85 -114 85
17 0 121 -18 135 -22 18 l-3 -83 -50 82 c-71 116 -85 113 -85 -17z"/>
<path d="M4458 490 c25 -72 39 -100 49 -98 9 2 29 43 49 98 19 52 34 96 34 98
0 1 -6 2 -14 2 -9 0 -23 -26 -36 -67 -12 -38 -24 -75 -27 -83 -3 -8 -17 20
-32 65 -17 48 -34 81 -43 83 -12 2 -7 -19 20 -98z"/>
<path d="M4620 490 c0 -82 3 -100 15 -100 12 0 15 18 15 100 0 82 -3 100 -15
100 -12 0 -15 -18 -15 -100z"/>
<path d="M4710 491 c0 -83 3 -101 15 -101 11 0 15 11 15 40 0 32 4 40 18 40
11 0 27 -16 41 -40 12 -22 29 -40 37 -40 11 0 9 10 -11 44 -22 38 -24 45 -10
56 19 16 19 64 0 80 -8 7 -35 15 -60 18 l-45 5 0 -102z m92 55 c15 -22 2 -42
-35 -51 -26 -7 -27 -6 -27 34 0 40 1 41 28 35 15 -4 30 -12 34 -18z"/>
<path d="M4924 578 c-60 -28 -58 -149 3 -177 69 -32 133 11 133 89 0 78 -67
122 -136 88z m86 -28 c43 -43 15 -140 -40 -140 -33 0 -60 35 -60 80 0 45 27
80 60 80 11 0 29 -9 40 -20z"/>
<path d="M5110 490 c0 -121 18 -135 22 -17 l3 82 50 -82 c70 -117 85 -114 85
17 0 121 -18 135 -22 18 l-3 -83 -50 82 c-71 116 -85 113 -85 -17z"/>
<path d="M5330 490 c0 -60 4 -100 10 -100 6 0 10 34 10 81 0 44 4 78 8 75 4
-3 19 -39 32 -80 13 -42 29 -76 36 -76 7 0 25 36 41 80 15 44 30 80 33 80 3 0
4 -36 2 -80 -3 -68 -1 -80 12 -80 14 0 16 16 16 101 0 97 -1 100 -21 97 -17
-2 -28 -20 -48 -75 -31 -85 -37 -92 -45 -58 -19 77 -48 135 -67 135 -17 0 -19
-8 -19 -100z"/>
<path d="M5580 490 l0 -100 55 0 c62 0 75 17 18 22 -35 3 -38 6 -41 36 -3 31
-2 32 37 32 51 0 54 18 4 22 -35 3 -38 6 -38 33 0 27 3 30 38 33 57 5 44 22
-18 22 l-55 0 0 -100z"/>
<path d="M5740 490 c0 -82 3 -100 15 -100 12 0 15 16 15 82 l0 82 51 -82 c68
-111 79 -109 79 18 0 60 -4 100 -10 100 -6 0 -10 -34 -10 -82 l0 -83 -51 83
c-35 56 -57 82 -70 82 -17 0 -19 -8 -19 -100z"/>
<path d="M5940 575 c0 -10 10 -15 30 -15 l30 0 0 -85 c0 -69 3 -85 15 -85 12
0 15 16 15 84 0 84 0 85 27 88 14 2 28 9 31 16 3 9 -16 12 -72 12 -61 0 -76
-3 -76 -15z"/>
<path d="M532 392 c-37 -91 -37 -92 -11 -92 13 0 53 -9 89 -20 36 -11 67 -20
69 -20 1 0 -20 25 -48 56 -37 40 -53 67 -57 95 -4 21 -9 39 -13 39 -3 0 -16
-26 -29 -58z"/>
<path d="M1245 384 c-56 -27 -82 -29 -152 -13 -37 9 -67 8 -123 -1 l-74 -13
47 -41 c90 -78 50 -122 -128 -141 -79 -9 -95 -14 -95 -30 0 -19 36 -41 79 -49
42 -8 61 -22 61 -47 0 -25 9 -24 83 7 140 59 274 170 331 273 39 72 33 83 -29
55z"/>
<path d="M270 383 c-27 -12 -46 -13 -81 -6 -48 9 -89 0 -89 -22 0 -24 59 -103
121 -160 99 -92 217 -149 367 -175 69 -13 74 -12 93 7 l20 20 -40 47 c-46 52
-49 66 -23 89 16 14 168 44 257 49 59 4 58 29 -5 89 l-52 50 -103 6 c-63 4
-104 2 -108 -4 -3 -5 16 -35 43 -66 47 -51 61 -77 43 -77 -5 0 -30 7 -58 16
-27 8 -69 19 -93 23 -42 8 -181 -1 -214 -14 -28 -11 -22 17 17 75 19 29 35 53
35 54 0 1 -15 2 -32 2 -18 0 -40 3 -48 6 -8 4 -31 -1 -50 -9z"/>
</g>
</svg>
